<?xml version="1.0" encoding="utf-8"?>
<!-- Generated by IcoMoon.io -->
<!DOCTYPE svg PUBLIC "-//W3C//DTD SVG 1.1//EN" "http://www.w3.org/Graphics/SVG/1.1/DTD/svg11.dtd">
<svg version="1.1" xmlns="http://www.w3.org/2000/svg" xmlns:xlink="http://www.w3.org/1999/xlink" width="27" height="32" viewBox="0 0 27 32">
<g>
</g>
	<path d="M20.446 12.054q0.321 0.625-0.089 1.179l-5.714 8q-0.339 0.482-0.929 0.482t-0.929-0.482l-5.714-8q-0.411-0.554-0.089-1.179 0.304-0.625 1.018-0.625h11.429q0.714 0 1.018 0.625zM22.857 24.571v-17.143q0-0.232-0.17-0.402t-0.402-0.17h-17.143q-0.232 0-0.402 0.17t-0.17 0.402v17.143q0 0.232 0.17 0.402t0.402 0.17h17.143q0.232 0 0.402-0.17t0.17-0.402zM27.429 7.429v17.143q0 2.125-1.509 3.634t-3.634 1.509h-17.143q-2.125 0-3.634-1.509t-1.509-3.634v-17.143q0-2.125 1.509-3.634t3.634-1.509h17.143q2.125 0 3.634 1.509t1.509 3.634z" fill="#000000" />
</svg>
