<?xml version="1.0" encoding="utf-8"?>
<!-- Generated by IcoMoon.io -->
<!DOCTYPE svg PUBLIC "-//W3C//DTD SVG 1.1//EN" "http://www.w3.org/Graphics/SVG/1.1/DTD/svg11.dtd">
<svg version="1.1" xmlns="http://www.w3.org/2000/svg" xmlns:xlink="http://www.w3.org/1999/xlink" width="42" height="32" viewBox="0 0 42 32">
<g>
</g>
	<path d="M13.205 19.225c0.354-1.863 1.138-3.567 2.243-5.017-1.155-1.864-3.179-3.103-5.498-3.103-2.951 0-5.43 1.998-6.231 4.73-2.091 0.253-3.719 2.049-3.719 4.241 0 2.369 1.88 4.292 4.216 4.292h2.614c0.818-2.825 3.339-4.941 6.375-5.144z" fill="#000000" />
	<path d="M35.617 18.492c-1.332-4.275-5.413-7.395-10.254-7.395-5.734 0-10.405 4.385-10.684 9.882-0.32-0.059-0.641-0.093-0.978-0.093-3.137 0-5.675 2.462-5.675 5.515 0 2.622 1.889 5.042 4.41 5.599h22.025c3.828 0 7.285-3.103 7.285-6.822 0.008-3.457-2.673-6.299-6.13-6.687z" fill="#000000" />
	<path d="M40.727 4.486c0 2.479-2.007 4.486-4.486 4.486s-4.486-2.007-4.486-4.486c0-2.479 2.007-4.486 4.486-4.486 2.479 0 4.486 2.007 4.486 4.486z" fill="#000000" />
</svg>
