<?xml version="1.0" encoding="utf-8"?>
<!-- Generated by IcoMoon.io -->
<!DOCTYPE svg PUBLIC "-//W3C//DTD SVG 1.1//EN" "http://www.w3.org/Graphics/SVG/1.1/DTD/svg11.dtd">
<svg version="1.1" xmlns="http://www.w3.org/2000/svg" xmlns:xlink="http://www.w3.org/1999/xlink" width="27" height="32" viewBox="0 0 27 32">
<g>
</g>
	<path d="M20.518 20.036q0-0.464-0.339-0.804l-3.232-3.232 3.232-3.232q0.339-0.339 0.339-0.804 0-0.482-0.339-0.821l-1.607-1.607q-0.339-0.339-0.821-0.339-0.464 0-0.804 0.339l-3.232 3.232-3.232-3.232q-0.339-0.339-0.804-0.339-0.482 0-0.821 0.339l-1.607 1.607q-0.339 0.339-0.339 0.821 0 0.464 0.339 0.804l3.232 3.232-3.232 3.232q-0.339 0.339-0.339 0.804 0 0.482 0.339 0.821l1.607 1.607q0.339 0.339 0.821 0.339 0.464 0 0.804-0.339l3.232-3.232 3.232 3.232q0.339 0.339 0.804 0.339 0.482 0 0.821-0.339l1.607-1.607q0.339-0.339 0.339-0.821zM27.429 16q0 3.732-1.839 6.884t-4.991 4.991-6.884 1.839-6.884-1.839-4.991-4.991-1.839-6.884 1.839-6.884 4.991-4.991 6.884-1.839 6.884 1.839 4.991 4.991 1.839 6.884z" fill="#000000" />
</svg>
